<svg xmlns="http://www.w3.org/2000/svg" viewBox="0 0 64 64">
  <rect width="64" height="64" rx="14" fill="#111414"/>
  <circle cx="32" cy="32" r="24" fill="#107C10"/>
  <path d="M19.5 18.7c6.4-4.5 18.6-4.5 25 0-5.7 1.1-10.3 4.2-12.5 6.1-2.2-1.9-6.8-5-12.5-6.1Zm-5.4 24.1c1.6-6.6 8-13.6 13.7-17.2-4.2-3.2-8.8-4.7-12.8-4.3A23.9 23.9 0 0 0 14.1 42.8Zm35.8 0c-1.6-6.6-8-13.6-13.7-17.2 4.2-3.2 8.8-4.7 12.8-4.3a23.9 23.9 0 0 1 .9 21.5ZM32 30.4c-5.8 4.2-11.4 10.8-13.1 17.3 7.4 5.5 18.8 5.5 26.2 0-1.7-6.5-7.3-13.1-13.1-17.3Z" fill="#F5F5F5"/>
</svg>
