<svg xmlns="http://www.w3.org/2000/svg" viewBox="0 0 64 64">
  <rect width="64" height="64" rx="14" fill="#111414"/>
  <path d="M50.7 32.6c0 11-8.4 19.8-19 19.8-11.2 0-19.4-8.2-19.4-18.8 0-10.4 7.9-20.3 21-21.9-5.5 3-8.2 6.7-8.2 10.7 0 4.9 3.9 8.6 8.8 8.6 3.3 0 5.5-1.7 5.5-4.1 0-2.9-2.6-4.6-6.3-4.6-1.3 0-2.4.2-3.6.6 2.2-3.8 6.2-6.1 10.5-6.1 6.7 0 10.7 5.7 10.7 15.8Z" fill="none" stroke="#F5F5F5" stroke-width="4.4" stroke-linecap="round" stroke-linejoin="round"/>
  <path d="M39.7 35.2c0 4.2-3.3 7.3-7.9 7.3-4.9 0-8.8-3.8-8.8-8.9 0-2.8 1.1-5 3-6.5-.2 1-.2 1.8-.2 2.6 0 4.2 3.3 7.2 7.5 7.2 2.6 0 4.4-.7 6.4-1.7Z" fill="#8CF442"/>
</svg>
